<?xml version="1.0" encoding="UTF-8" standalone="no"?>
<!-- Created with Inkscape (http://www.inkscape.org/) -->

<svg
   xmlns:dc="http://purl.org/dc/elements/1.1/"
   xmlns:cc="http://creativecommons.org/ns#"
   xmlns:rdf="http://www.w3.org/1999/02/22-rdf-syntax-ns#"
   xmlns:svg="http://www.w3.org/2000/svg"
   xmlns="http://www.w3.org/2000/svg"
   xmlns:sodipodi="http://sodipodi.sourceforge.net/DTD/sodipodi-0.dtd"
   xmlns:inkscape="http://www.inkscape.org/namespaces/inkscape"
   width="256"
   height="256"
   id="svg4886"
   version="1.1"
   inkscape:version="0.48.4 r9939"
   inkscape:export-filename="/home/sneha/Desktop/256x256.png"
   inkscape:export-xdpi="90"
   inkscape:export-ydpi="90"
   sodipodi:docname="New document 3">
  <defs
     id="defs4888" />
  <sodipodi:namedview
     id="base"
     pagecolor="#ffffff"
     bordercolor="#666666"
     borderopacity="1.0"
     inkscape:pageopacity="0.0"
     inkscape:pageshadow="2"
     inkscape:zoom="0.7"
     inkscape:cx="264.68947"
     inkscape:cy="-79.343676"
     inkscape:document-units="px"
     inkscape:current-layer="g4929"
     showgrid="false"
     fit-margin-top="0"
     fit-margin-left="0"
     fit-margin-right="0"
     fit-margin-bottom="0"
     inkscape:window-width="1366"
     inkscape:window-height="721"
     inkscape:window-x="0"
     inkscape:window-y="25"
     inkscape:window-maximized="1" />
  <metadata
     id="metadata4891">
    <rdf:RDF>
      <cc:Work
         rdf:about="">
        <dc:format>image/svg+xml</dc:format>
        <dc:type
           rdf:resource="http://purl.org/dc/dcmitype/StillImage" />
        <dc:title></dc:title>
      </cc:Work>
    </rdf:RDF>
  </metadata>
  <g
     inkscape:label="Layer 1"
     inkscape:groupmode="layer"
     id="layer1"
     transform="translate(397.14285,-672.07615)">
    <g
       id="g5701"
       transform="matrix(0.28527138,0,0,0.28527138,-3.4155217,749.46672)">
      <g
         id="g4929"
         transform="matrix(2,0,0,2,1380.1852,-626.10562)">
        <rect
           y="177.40904"
           x="-1380.1852"
           height="448.69556"
           width="448.69556"
           id="rect4913"
           style="color:#000000;fill:#ffffff;fill-opacity:1;fill-rule:evenodd;stroke:none;stroke-width:4.30000019;marker:none;visibility:visible;display:inline;overflow:visible;enable-background:accumulate" />
        <g
           transform="matrix(1.4143188,0,0,-1.4143188,-1787.2974,907.23163)"
           id="g3754"
           inkscape:export-filename="/home/sneha/1HOP/Logos/SMS Magic/big.png"
           inkscape:export-xdpi="90"
           inkscape:export-ydpi="90">
          <path
             d="m 470.7317,257.5125 c -55.1661,-13.3956 -110.7462,20.4653 -124.1418,75.6315 -13.3969,55.1659 20.4641,110.7462 75.6303,124.143 0.0975,0.0238 0.195,0.044 0.2914,0.0666 55.0698,13.2067 110.4797,-20.6294 123.8516,-75.698 13.3957,-55.1637 -20.4619,-110.7426 -75.6244,-124.1405 l -0.007,-0.003 z"
             style="fill:#f89928;fill-opacity:1;fill-rule:evenodd;stroke:none"
             id="path65263"
             inkscape:connector-curvature="0" />
          <path
             d="m 463.7049,301.3053 24.6884,-37.7771 c -5.5959,-2.4911 -11.4914,-4.5167 -17.6545,-6.0131 l -0.007,-0.003 -25.2686,45.4071 c -3.8114,0.4544 -7.1172,1.1217 -9.4251,2.3267 -16.5776,8.6601 -30.0615,31.5269 -45.6911,42.0131 -10.5492,7.0778 -22.1009,-0.5556 -32.2325,7.1909 -5.542,4.2373 -6.4128,14.7816 -3.1881,21.1955 2.861,5.6897 12.651,7.2576 18.1981,4.6965 9.972,-4.6049 10.3326,-18.707 20.4367,-22.9706 9.771,-4.123 28.4128,-10.0352 34.6853,-1.029 9.1048,13.0746 2.8919,32.6597 0.9552,48.826 -1.2146,10.1398 -11.8278,17.4152 -12.1512,27.6298 -0.2095,6.6439 3.5138,15.3346 11.4423,17.0323 8.6992,1.8629 16.0889,-5.5494 17.7103,-14.0037 1.7711,-9.2393 -5.0261,-19.5231 -3.5427,-28.3876 2.6872,-16.0509 4.4373,-37.5843 17.8174,-45.419 9.1477,-5.3552 20.0288,3.4237 29.6606,10.5752 10.2946,7.6431 4.7976,20.1453 10.2005,26.3039 7.6181,8.685 19.2483,6.3283 23.5414,-0.9219 4.4799,-7.5693 2.1365,-14.1477 -2.48,-18.9249 -6.0849,-6.2986 -12.2621,-1.1466 -24.3899,-16.6051 -8.9132,-11.3604 -17.327,-23.6832 -19.8847,-37.8983 -0.9743,-5.4103 2.1971,-10.3065 5.7194,-15.0886 9.1491,-12.4214 16.0104,-4.7534 24.3375,-11.8445 4.4572,-3.7945 7.7119,-10.266 -0.3034,-18.1075 -3.7604,-3.6794 -10.9037,-4.3954 -15.2314,-1.5142 -5.3815,3.5841 -6.9624,14.6089 -12.1821,18.456 -3.8268,2.8205 -9.5808,4.1063 -15.7607,4.8547"
             style="fill:#ffffff;fill-opacity:1;fill-rule:evenodd;stroke:none"
             id="path65265"
             inkscape:connector-curvature="0" />
        </g>
      </g>
    </g>
  </g>
</svg>
